opsz8_wght1000_wdth50.ufo
<glyph name="A" format="2">
	<unicode hex="0041"/>
	<advance width="1514"/>
	<outline>
		<contour>
			<point x="-175.9451904297" y="0" type="line"/>
			<point x="-173.1154785156" y="90.0029296875" type="line"/>
			<point x="4.1906738281" y="107.0029296875" type="line"/>
			<point x="394.3215332031" y="682" type="line"/>
			<point x="969.1771240234" y="1520" type="line"/>
			<point x="1143.3525390625" y="1502" type="line"/>
			<point x="1213.9210205078" y="655" type="line"/>
			<point x="1280.7994384766" y="121.0029296875" type="line"/>
			<point x="1471.1925048828" y="101.0029296875" type="line"/>
			<point x="1467.7534179688" y="0" type="line"/>
			<point x="900.4934082031" y="0" type="line"/>
			<point x="914.9324951172" y="101.0029296875" type="line"/>
			<point x="1109.3255615234" y="126.0029296875" type="line"/>
			<point x="1049.5622558594" y="645" type="line"/>
			<point x="891" y="1166" type="line"/>
			<point x="886" y="1287" type="line"/>
			<point x="876" y="1287" type="line"/>
			<point x="799" y="1167" type="line"/>
			<point x="479.10546875" y="599.4711303711" type="line"/>
			<point x="165.1505126953" y="107.0029296875" type="line"/>
			<point x="377.2393798828" y="90.0029296875" type="line"/>
			<point x="393.4096679688" y="0" type="line"/>
		</contour>
		<contour>
			<point x="261.6469726562" y="368.8053588867" type="line"/>
			<point x="339.5723876953" y="496.5663452148" type="line"/>
			<point x="630.3603515625" y="291.1326904297" type="line"/>
			<point x="607.1354980469" y="164.6107177734" type="line"/>
		</contour>
		<contour>
			<point x="630.3603515625" y="291.1326904297" type="line"/>
			<point x="1275.7154541016" y="498.5663452148" type="line"/>
			<point x="1275.544128418" y="380.8053588867" type="line"/>
			<point x="607.1354980469" y="164.6107177734" type="line"/>
		</contour>
	</outline>
	<anchor name="bottom" x="523" y="0"/>
	<anchor name="ogonek" x="1098" y="0"/>
	<anchor name="top" x="954" y="1500"/>
	<anchor name="tonos" x="613" y="1500"/>
</glyph>
<glyph name="D" format="2">
	<unicode hex="0044"/>
	<advance width="1287"/>
	<outline>
		<contour>
			<point x="-46.5671386719" y="0" type="line"/>
			<point x="-38.6065673828" y="101.0029296875" type="line"/>
			<point x="152.4632568359" y="120.0029296875" type="line"/>
			<point x="279.7827148438" y="798" type="line"/>
			<point x="393.7421875" y="1365.9970703125" type="line"/>
			<point x="186.5815429688" y="1387.9970703125" type="line"/>
			<point x="189.9978027344" y="1500" type="line"/>
			<point x="762.8032226562" y="1500" type="line" smooth="yes"/>
			<point x="982.4436035156" y="1500"/>
			<point x="1274.0708007812" y="1113.3881835938"/>
			<point x="1212.3642578125" y="730" type="qcurve" smooth="yes"/>
			<point x="1156.6965332031" y="386.8835449219"/>
			<point x="809.0224609375" y="0"/>
			<point x="484.296875" y="0" type="qcurve" smooth="yes"/>
		</contour>
		<contour>
			<point x="299.322265625" y="126.0217895508" type="line"/>
			<point x="328.390625" y="125.0217895508"/>
			<point x="445.1127929688" y="121.0217895508"/>
			<point x="519.3271484375" y="121.0217895508" type="qcurve" smooth="yes"/>
			<point x="740.5554199219" y="120.0217895508"/>
			<point x="988.5711669922" y="385.7219848633"/>
			<point x="1056.8193359375" y="754" type="qcurve" smooth="yes"/>
			<point x="1132.0038452148" y="1181.6569824219"/>
			<point x="937.3824462891" y="1375.2764892578"/>
			<point x="708.2995605469" y="1375.2764892578" type="qcurve" smooth="yes"/>
			<point x="652.2016601562" y="1375.2764892578"/>
			<point x="570.8413085938" y="1374.2764892578"/>
			<point x="540.6564941406" y="1371.2764892578" type="qcurve"/>
			<point x="422.849609375" y="754" type="line"/>
		</contour>
	</outline>
	<anchor name="bottom" x="686" y="0"/>
	<anchor name="center" x="448" y="754"/>
	<anchor name="top" x="827" y="1500"/>
	<anchor name="liga" x="1431" y="0"/>
</glyph>
<glyph name="E" format="2">
	<unicode hex="0045"/>
	<advance width="1140"/>
	<outline>
		<contour>
			<point x="-49.1196899414" y="0" type="line"/>
			<point x="-43.6373901367" y="101.0029296875" type="line"/>
			<point x="141.9297485352" y="120.0029296875" type="line"/>
			<point x="267.9691772461" y="797" type="line"/>
			<point x="384.008605957" y="1365.9970703125" type="line"/>
			<point x="179.3108520508" y="1387.9970703125" type="line"/>
			<point x="186.4452514648" y="1500" type="line"/>
			<point x="1136.1574707031" y="1500" type="line"/>
			<point x="1093.3510742188" y="1156.5682983398" type="line"/>
			<point x="1022.8044433594" y="1156.5682983398" type="line"/>
			<point x="988.7057495117" y="1360.8110961914" type="line"/>
			<point x="572.6971435547" y="1360.8110961914" type="line"/>
			<point x="532.6971435547" y="1330.8110961914" type="line"/>
			<point x="428.1510620117" y="803" type="line"/>
			<point x="318.4248657227" y="162.108215332" type="line"/>
			<point x="332.4248657227" y="133.108215332" type="line"/>
			<point x="806.4334716797" y="133.108215332" type="line"/>
			<point x="941.7164916992" y="377.9149780273" type="line"/>
			<point x="1041.2208251953" y="377.9149780273" type="line"/>
			<point x="924.1574707031" y="0" type="line"/>
		</contour>
		<contour>
			<point x="343" y="776" type="line"/>
			<point x="361" y="858" type="line"/>
			<point x="805.9682006836" y="847.3487548828" type="line"/>
			<point x="865.8000488281" y="996.5905151367" type="line"/>
			<point x="940.4030761719" y="996.5905151367" type="line"/>
			<point x="842.075012207" y="568.0700073242" type="line"/>
			<point x="762.4578857422" y="568.0700073242" type="line"/>
			<point x="775.5142822266" y="734.3399658203" type="line"/>
		</contour>
	</outline>
	<anchor name="bottom" x="518" y="0"/>
	<anchor name="ogonek" x="827" y="0"/>
	<anchor name="top" x="789" y="1500"/>
	<anchor name="tonos" x="81" y="1500"/>
</glyph>
<glyph name="F" format="2">
	<unicode hex="0046"/>
	<advance width="1001"/>
	<outline>
		<contour>
			<point x="-56.235534668" y="0" type="line"/>
			<point x="-53.2749633789" y="103.0029296875" type="line"/>
			<point x="131.7704467773" y="117.0029296875" type="line"/>
			<point x="265.8098754883" y="802" type="line"/>
			<point x="373.8493041992" y="1365.9970703125" type="line"/>
			<point x="175.9342651367" y="1386.9970703125" type="line"/>
			<point x="183.5903930664" y="1500" type="line"/>
			<point x="1036.442199707" y="1500" type="line"/>
			<point x="997.9960327148" y="1166.2284545898" type="line"/>
			<point x="924.5480957031" y="1166.2284545898" type="line"/>
			<point x="886.3507080078" y="1363.6122436523" type="line"/>
			<point x="549.7830810547" y="1363.6122436523" type="line"/>
			<point x="528.7830810547" y="1339.6122436523" type="line"/>
			<point x="415.8767700195" y="798" type="line"/>
			<point x="293.8373413086" y="111.0029296875" type="line"/>
			<point x="557.1874389648" y="93.0029296875" type="line"/>
			<point x="549.7051391602" y="0" type="line"/>
		</contour>
		<contour>
			<point x="332" y="751" type="line"/>
			<point x="351" y="851" type="line"/>
			<point x="657.8158569336" y="843.0879516602" type="line"/>
			<point x="716.7322998047" y="972.3579101562" type="line"/>
			<point x="794.2507324219" y="972.3579101562" type="line"/>
			<point x="695.9375" y="519.1723632812" type="line"/>
			<point x="633.4190673828" y="519.1723632812" type="line"/>
			<point x="639.6414794922" y="708.837097168" type="line"/>
		</contour>
	</outline>
	<anchor name="bottom" x="578" y="0"/>
	<anchor name="top" x="622" y="1500"/>
</glyph>
<glyph name="H" format="2">
	<unicode hex="0048"/>
	<advance width="1585"/>
	<outline>
		<contour>
			<point x="-52.8629760742" y="0" type="line"/>
			<point x="-45.9024047852" y="101.0029296875" type="line"/>
			<point x="140.6212768555" y="121.0029296875" type="line"/>
			<point x="266.6607055664" y="796" type="line"/>
			<point x="382.7001342773" y="1365.9970703125" type="line"/>
			<point x="178.0023803711" y="1387.9970703125" type="line"/>
			<point x="183.701965332" y="1500" type="line"/>
			<point x="695.6219482422" y="1500" type="line"/>
			<point x="683.1396484375" y="1388.9970703125" type="line"/>
			<point x="543.05078125" y="1365.9970703125" type="line"/>
			<point x="428.6655883789" y="767" type="line"/>
			<point x="307.626159668" y="121.0029296875" type="line"/>
			<point x="450.8890991211" y="101.0029296875" type="line"/>
			<point x="443.7112426758" y="0" type="line"/>
		</contour>
		<contour>
			<point x="346" y="738" type="line"/>
			<point x="367" y="855" type="line"/>
			<point x="785.1372070312" y="818.1441650391" type="line"/>
			<point x="1162.8967285156" y="820.1441650391" type="line"/>
			<point x="1145.0638427734" y="703.9609985352" type="line"/>
			<point x="760.3663330078" y="700.9609985352" type="line"/>
		</contour>
		<contour>
			<point x="874.0649414062" y="0" type="line"/>
			<point x="884.0255126953" y="101.0029296875" type="line"/>
			<point x="1028.5491943359" y="121.0029296875" type="line"/>
			<point x="1150.5886230469" y="773" type="line"/>
			<point x="1264.6280517578" y="1365.9970703125" type="line"/>
			<point x="1115.9302978516" y="1388.9970703125" type="line"/>
			<point x="1121.6298828125" y="1501" type="line"/>
			<point x="1629.3718261719" y="1501" type="line"/>
			<point x="1617.8895263672" y="1388.9970703125" type="line"/>
			<point x="1430.2789306641" y="1365.9970703125" type="line"/>
			<point x="1313.2395019531" y="755" type="line"/>
			<point x="1194.2000732422" y="121.0029296875" type="line"/>
			<point x="1386.9847412109" y="101.0029296875" type="line"/>
			<point x="1379.8068847656" y="0" type="line"/>
		</contour>
	</outline>
	<anchor name="bottom" x="607" y="0"/>
	<anchor name="center" x="820" y="1079"/>
	<anchor name="top" x="950" y="1500"/>
	<anchor name="tonos" x="81" y="1500"/>
	<anchor name="cy_descender" x="1399" y="100"/>
</glyph>
<glyph name="I" format="2">
	<unicode hex="0049"/>
	<advance width="778"/>
	<outline>
		<contour>
			<point x="-37.126159668" y="0" type="line"/>
			<point x="-34.6438598633" y="100.0029296875" type="line"/>
			<point x="178.227722168" y="120.0029296875" type="line"/>
			<point x="306.7454223633" y="828" type="line"/>
			<point x="419.4248657227" y="1364.9970703125" type="line"/>
			<point x="187.9009399414" y="1387.9970703125" type="line"/>
			<point x="193.4387817383" y="1500" type="line"/>
			<point x="811.5068969727" y="1500" type="line"/>
			<point x="802.186340332" y="1387.9970703125" type="line"/>
			<point x="593.3147583008" y="1364.9970703125" type="line"/>
			<point x="480.6353149414" y="816" type="line"/>
			<point x="355.1176147461" y="122.0029296875" type="line"/>
			<point x="569.6415405273" y="100.0029296875" type="line"/>
			<point x="558.1592407227" y="0" type="line"/>
		</contour>
	</outline>
	<anchor name="bottom" x="220" y="0"/>
	<anchor name="ogonek" x="356" y="0"/>
	<anchor name="top" x="503" y="1500"/>
	<anchor name="tonos" x="81" y="1500"/>
	<anchor name="yu_dash" x="365" y="795"/>
	<anchor name="liga" x="712" y="0"/>
</glyph>
<glyph name="J" format="2">
	<unicode hex="004A"/>
	<advance width="895"/>
	<outline>
		<contour>
			<point x="-185" y="-225" type="qcurve"/>
			<point x="-151" y="-103" type="line"/>
			<point x="-131" y="-110"/>
			<point x="-56" y="-128"/>
			<point x="2" y="-128" type="qcurve" smooth="yes"/>
			<point x="80" y="-128"/>
			<point x="170" y="-1"/>
			<point x="192" y="112" type="qcurve" smooth="yes"/>
			<point x="424.1397094727" y="754" type="line"/>
			<point x="542.819152832" y="1367.9970703125" type="line"/>
			<point x="334.0689086914" y="1389.9970703125" type="line"/>
			<point x="342.0068969727" y="1500" type="line"/>
			<point x="903.248840332" y="1500" type="line"/>
			<point x="898.3108520508" y="1388.9970703125" type="line"/>
			<point x="703.0690307617" y="1365.9970703125" type="line"/>
			<point x="589.0296020508" y="754" type="line"/>
			<point x="370" y="204" type="line" smooth="yes"/>
			<point x="322" y="-38"/>
			<point x="152" y="-260"/>
			<point x="28" y="-260" type="qcurve" smooth="yes"/>
			<point x="-44" y="-260"/>
			<point x="-165" y="-237"/>
		</contour>
	</outline>
	<anchor name="bottom" x="376" y="-208"/>
	<anchor name="top" x="533" y="1500"/>
	<anchor name="_liga" x="0" y="0"/>
</glyph>
<glyph name="K" format="2">
	<unicode hex="004B"/>
	<advance width="1324"/>
	<outline>
		<contour>
			<point x="-52.5606689453" y="0" type="line"/>
			<point x="-49.3828125" y="101.0029296875" type="line"/>
			<point x="138.9670410156" y="120.0029296875" type="line"/>
			<point x="278.0064697266" y="828" type="line"/>
			<point x="382.6859130859" y="1365.9970703125" type="line"/>
			<point x="177.4664306641" y="1387.9970703125" type="line"/>
			<point x="182.0042724609" y="1500" type="line"/>
			<point x="711.8299560547" y="1500" type="line"/>
			<point x="705.2921142578" y="1387.9970703125" type="line"/>
			<point x="539.1597900391" y="1365.9970703125" type="line"/>
			<point x="437.4803466797" y="816" type="line"/>
			<point x="311" y="124" type="line"/>
			<point x="440.8342285156" y="101.0029296875" type="line"/>
			<point x="431.6563720703" y="0" type="line"/>
		</contour>
		<contour>
			<point x="303" y="540" type="line"/>
			<point x="331" y="693" type="line"/>
			<point x="1107.1112670898" y="1356.9970703125" type="line"/>
			<point x="895.0231323242" y="1385.9970703125" type="line"/>
			<point x="907.5609741211" y="1500" type="line"/>
			<point x="1520.3247070312" y="1500" type="line"/>
			<point x="1506.7868652344" y="1387.9970703125" type="line"/>
			<point x="1301.1330566406" y="1366.9970703125" type="line"/>
		</contour>
		<contour>
			<point x="589" y="874" type="line"/>
			<point x="717" y="993" type="line"/>
			<point x="1044.2842407227" y="112.0029296875" type="line"/>
			<point x="1202.3294067383" y="97.0029296875" type="line"/>
			<point x="1199.151550293" y="0" type="line"/>
			<point x="740.5875854492" y="0" type="line"/>
			<point x="746.7654418945" y="97.0029296875" type="line"/>
			<point x="875" y="124" type="line"/>
		</contour>
	</outline>
	<anchor name="bottom" x="607" y="0"/>
	<anchor name="top" x="896" y="1500"/>
	<anchor name="kai_tail" x="1201" y="100"/>
</glyph>
<glyph name="L" format="2">
	<unicode hex="004C"/>
	<advance width="1092"/>
	<outline>
		<contour>
			<point x="-45.8423461914" y="0" type="line"/>
			<point x="-41.1862182617" y="101.0029296875" type="line"/>
			<point x="146.1636352539" y="120.0029296875" type="line"/>
			<point x="281.2030639648" y="836" type="line"/>
			<point x="388.2424926758" y="1365.9970703125" type="line"/>
			<point x="177.7620239258" y="1386.9970703125" type="line"/>
			<point x="182.9398803711" y="1500" type="line"/>
			<point x="760.9645385742" y="1500" type="line"/>
			<point x="745.7866821289" y="1386.9970703125" type="line"/>
			<point x="549.1323852539" y="1364.9970703125" type="line"/>
			<point x="431.092956543" y="764" type="line"/>
			<point x="313.4661865234" y="143.2451171875" type="line"/>
			<point x="334.4661865234" y="126.2451171875" type="line"/>
			<point x="789.9705810547" y="126.2451171875" type="line"/>
			<point x="922.3522949219" y="399.5302124023" type="line"/>
			<point x="1027.4064941406" y="399.5302124023" type="line"/>
			<point x="913.5951538086" y="0" type="line"/>
		</contour>
	</outline>
	<anchor name="bottom" x="535" y="0"/>
	<anchor name="centerright" x="755" y="750"/>
	<anchor name="top" x="878" y="1500"/>
	<anchor name="topright" x="804" y="1001"/>
	<anchor name="center" x="397" y="750"/>
	<anchor name="liga" x="1104" y="0"/>
</glyph>
<glyph name="M" format="2">
	<unicode hex="004D"/>
	<advance width="2088"/>
	<outline>
		<contour>
			<point x="-51.7427978516" y="0" type="line"/>
			<point x="-50.5649414062" y="101.0029296875" type="line"/>
			<point x="144.3500976562" y="136.0029296875" type="line"/>
			<point x="260.3895263672" y="745" type="line"/>
			<point x="379.0689697266" y="1365.9970703125" type="line"/>
			<point x="181.5887451172" y="1387.9970703125" type="line"/>
			<point x="188.1265869141" y="1500" type="line"/>
			<point x="541.6099853516" y="1500" type="line"/>
			<point x="769.705871582" y="588.338684082" type="line"/>
			<point x="815" y="327" type="line"/>
			<point x="831" y="213" type="line"/>
			<point x="841" y="213" type="line"/>
			<point x="900" y="327" type="line"/>
			<point x="1329.8713378906" y="735.1595458984" type="line"/>
			<point x="1810.4274902344" y="1500" type="line"/>
			<point x="2122.6090698242" y="1500" type="line"/>
			<point x="2111.2450561523" y="1388.9970703125" type="line"/>
			<point x="1920.764831543" y="1365.9970703125" type="line"/>
			<point x="1803.0853881836" y="744" type="line"/>
			<point x="1685.0459594727" y="121.0029296875" type="line"/>
			<point x="1877.3088989258" y="101.0029296875" type="line"/>
			<point x="1872.1310424805" y="0" type="line"/>
			<point x="1367.3239135742" y="0" type="line"/>
			<point x="1373.5017700195" y="101.0029296875" type="line"/>
			<point x="1542.1560668945" y="126.0029296875" type="line"/>
			<point x="1654.1954956055" y="703.1770019531" type="line"/>
			<point x="1580" y="1244" type="line"/>
			<point x="1606" y="1363" type="line"/>
			<point x="1597" y="1365" type="line"/>
			<point x="1539" y="1258" type="line"/>
			<point x="1346.3474121094" y="556.4432983398" type="line"/>
			<point x="913.5078735352" y="0" type="line"/>
			<point x="947.5667724609" y="0" type="line"/>
			<point x="649.1613769531" y="511.4788818359" type="line"/>
			<point x="499" y="1249" type="line"/>
			<point x="485" y="1357" type="line"/>
			<point x="474" y="1355" type="line"/>
			<point x="456" y="1235" type="line"/>
			<point x="376.702331543" y="714" type="line"/>
			<point x="268.662902832" y="126.0029296875" type="line"/>
			<point x="459.8389282227" y="101.0029296875" type="line"/>
			<point x="440.8783569336" y="0" type="line"/>
		</contour>
	</outline>
	<anchor name="bottom" x="768" y="0"/>
	<anchor name="top" x="1048" y="1500"/>
</glyph>
<glyph name="N" format="2">
	<unicode hex="004E"/>
	<advance width="1429"/>
	<outline>
		<contour>
			<point x="-62.7572631836" y="0" type="line"/>
			<point x="-61.5794067383" y="100.0029296875" type="line"/>
			<point x="134.7704467773" y="135.0029296875" type="line"/>
			<point x="250.8098754883" y="754" type="line"/>
			<point x="369.8493041992" y="1365.9970703125" type="line"/>
			<point x="171.4125366211" y="1387.9970703125" type="line"/>
			<point x="174.5903930664" y="1500" type="line"/>
			<point x="654.4326782227" y="1500" type="line"/>
			<point x="872.7949829102" y="766.4974365234" type="line"/>
			<point x="958" y="418" type="line"/>
			<point x="990" y="317" type="line"/>
			<point x="1001" y="319" type="line"/>
			<point x="1024" y="440" type="line"/>
			<point x="1138.1661376953" y="822" type="line"/>
			<point x="1237.2055664062" y="1364.9970703125" type="line"/>
			<point x="1027.1599121094" y="1387.9970703125" type="line"/>
			<point x="1039.7725830078" y="1500" type="line"/>
			<point x="1551.4508056641" y="1500" type="line"/>
			<point x="1539.8381347656" y="1386.9970703125" type="line"/>
			<point x="1352.9665527344" y="1363.9970703125" type="line"/>
			<point x="1236.8032226562" y="779" type="line"/>
			<point x="1082.9271240234" y="-4" type="line"/>
			<point x="924.6934814453" y="-4" type="line"/>
			<point x="695.3576660156" y="701.9283447266" type="line"/>
			<point x="507" y="1220" type="line"/>
			<point x="471" y="1324" type="line"/>
			<point x="461" y="1321" type="line"/>
			<point x="442" y="1199" type="line"/>
			<point x="349.5708618164" y="713" type="line"/>
			<point x="241.5314331055" y="126.0029296875" type="line"/>
			<point x="441.272644043" y="100.0029296875" type="line"/>
			<point x="425.0947875977" y="0" type="line"/>
		</contour>
	</outline>
	<anchor name="bottom" x="640" y="0"/>
	<anchor name="top" x="884" y="1500"/>
	<anchor name="engtail" x="1041" y="0"/>
	<anchor name="liga" x="1432" y="0"/>
</glyph>
<glyph name="P" format="2">
	<unicode hex="0050"/>
	<advance width="1104"/>
	<outline>
		<contour>
			<point x="-50.0389404297" y="0" type="line"/>
			<point x="-43.7811279297" y="102.0029296875" type="line"/>
			<point x="140.0469970703" y="117.0029296875" type="line"/>
			<point x="277.0064697266" y="798" type="line"/>
			<point x="386.6059570312" y="1366.9970703125" type="line"/>
			<point x="179.6909179688" y="1383.9970703125" type="line"/>
			<point x="185.2652587891" y="1500" type="line"/>
			<point x="885.1544189453" y="1500" type="line" smooth="yes"/>
			<point x="964.3435668945" y="1500"/>
			<point x="1066.6127319336" y="1235"/>
			<point x="1029.7897338867" y="1010" type="qcurve" smooth="yes"/>
			<point x="992.9667358398" y="782"/>
			<point x="808.9622802734" y="600.873046875"/>
			<point x="666.2425537109" y="600.873046875" type="qcurve" smooth="yes"/>
			<point x="525.0726928711" y="600.873046875"/>
			<point x="355.2206420898" y="622.9959716797"/>
			<point x="314.1597900391" y="630.0531616211" type="qcurve"/>
			<point x="341.0733642578" y="719" type="line"/>
			<point x="403.4633178711" y="707"/>
			<point x="465.1651611328" y="697"/>
			<point x="572.3946533203" y="697" type="qcurve" smooth="yes"/>
			<point x="656.7846069336" y="697"/>
			<point x="800.8236694336" y="909.8990478516"/>
			<point x="827.8236694336" y="1071.8990478516" type="qcurve" smooth="yes"/>
			<point x="861.8236694336" y="1272.8990478516"/>
			<point x="838.7512817383" y="1374.8168334961"/>
			<point x="758.7924804688" y="1374.8168334961" type="qcurve" smooth="yes"/>
			<point x="564.5261230469" y="1374.8168334961" type="line"/>
			<point x="534.0591430664" y="1347.7300415039" type="line"/>
			<point x="419.0733642578" y="742" type="line"/>
			<point x="303.1138916016" y="116.0029296875" type="line"/>
			<point x="524.6812744141" y="99.0029296875" type="line"/>
			<point x="506.4234619141" y="0" type="line"/>
		</contour>
	</outline>
	<anchor name="bottom" x="634" y="0"/>
	<anchor name="top" x="634" y="1500"/>
</glyph>
<glyph name="Q" format="2">
	<unicode hex="0051"/>
	<advance width="1548"/>
	<outline>
		<contour>
			<point x="94.2220709802" y="877" type="qcurve" smooth="yes"/>
			<point x="182.3370612146" y="1250"/>
			<point x="786.3251342773" y="1565.8071289062"/>
			<point x="964.3019049646" y="1520" type="qcurve" smooth="yes"/>
			<point x="1273.6986694336" y="1460.8928222656"/>
			<point x="1534.1119635583" y="1029"/>
			<point x="1446.920801449" y="654" type="qcurve" smooth="yes"/>
			<point x="1359.1732788086" y="278"/>
			<point x="824.3375494958" y="-76.9519042969"/>
			<point x="550.493067074" y="4" type="qcurve" smooth="yes"/>
			<point x="302.6341803552" y="79.5373535156"/>
			<point x="3.1070807458" y="492"/>
		</contour>
		<contour>
			<point x="269.5899909021" y="795" type="qcurve" smooth="yes"/>
			<point x="189.5166876794" y="444.7298583984"/>
			<point x="396.7349243164" y="164.8377075195"/>
			<point x="602.4633789062" y="132.0462646484" type="qcurve" smooth="yes"/>
			<point x="843.9137573242" y="93.8489990234"/>
			<point x="1186.6714728357" y="436.9419555664"/>
			<point x="1257.623926449" y="760" type="qcurve" smooth="yes"/>
			<point x="1325.169641781" y="1065.6768798828"/>
			<point x="1085.648950863" y="1336.1442260742"/>
			<point x="873.4533942224" y="1368.63671875" type="qcurve" smooth="yes"/>
			<point x="651.7451422693" y="1402.8915405273"/>
			<point x="338.9287360193" y="1102.9987792969"/>
		</contour>
		<contour>
			<point x="382" y="-3" type="qcurve"/>
			<point x="1097.5882819177" y="-251.2224121094" type="line" smooth="yes"/>
			<point x="1191.7979987146" y="-289.5209960938"/>
			<point x="1336.3275397302" y="-282.0688476562"/>
			<point x="1404.2406256677" y="-200.0471191406" type="qcurve"/>
			<point x="1528.1412604333" y="-274.146484375" type="line"/>
			<point x="1520.0187018396" y="-328.8466796875"/>
			<point x="1237.0851080896" y="-496.5776367188"/>
			<point x="1134.1380866052" y="-476.5866699219" type="qcurve"/>
			<point x="376.8531744958" y="-231.9099121094" type="line"/>
			<point x="310.6576178552" y="-201.7917480469"/>
			<point x="156.5072272302" y="-220.2497558594"/>
			<point x="87.0880377771" y="-241.7263183594" type="qcurve"/>
			<point x="33.7608893396" y="-169.4475097656" type="line"/>
			<point x="-21.2273919104" y="-177.5844726562"/>
			<point x="296" y="5"/>
		</contour>
		<contour>
			<point x="320" y="-53" type="line"/>
			<point x="426" y="75"/>
			<point x="486.7154541016" y="106.299987793"/>
			<point x="601.2218017578" y="236.5346069336" type="qcurve" smooth="yes"/>
			<point x="615.0665283203" y="246.6898803711"/>
			<point x="654" y="332"/>
			<point x="645.7171630859" y="263.194519043" type="qcurve"/>
			<point x="654.8724365234" y="251.5438842773"/>
			<point x="722.24609375" y="210.3317260742"/>
			<point x="727.4013671875" y="193.4869995117" type="qcurve"/>
			<point x="712.6342773438" y="176.5646362305"/>
			<point x="689.9060058594" y="167.3705444336"/>
			<point x="677.0224609375" y="158.1376342773" type="qcurve" smooth="yes"/>
			<point x="578.4990234375" y="59.264831543"/>
			<point x="506" y="28"/>
			<point x="401" y="-88" type="qcurve"/>
		</contour>
	</outline>
	<anchor name="bottom" x="832" y="0"/>
	<anchor name="top" x="832" y="1500"/>
</glyph>
<glyph name="R" format="2">
	<unicode hex="0052"/>
	<advance width="1100"/>
	<outline>
		<contour>
			<point x="-74.6992797852" y="0" type="line"/>
			<point x="-65.7387084961" y="100.0029296875" type="line"/>
			<point x="124.6111450195" y="119.0029296875" type="line"/>
			<point x="261.6505737305" y="846" type="line"/>
			<point x="365.3300170898" y="1364.9970703125" type="line"/>
			<point x="168.014831543" y="1386.9970703125" type="line"/>
			<point x="170.4310913086" y="1500" type="line"/>
			<point x="724.9295043945" y="1500" type="line" smooth="yes"/>
			<point x="914.6099243164" y="1500"/>
			<point x="1062.7644042969" y="1277.6699829102"/>
			<point x="1035.3444213867" y="1099.0172119141" type="qcurve" smooth="yes"/>
			<point x="1009.9256591797" y="909.9047851562"/>
			<point x="706.600769043" y="704.0344238281"/>
			<point x="775.3268432617" y="704.0344238281" type="qcurve" smooth="yes"/>
			<point x="686.1157836914" y="704.0344238281"/>
			<point x="543.8107910156" y="703.0344238281"/>
			<point x="492.8107910156" y="708.0344238281" type="qcurve"/>
			<point x="519.1840209961" y="825" type="line"/>
			<point x="464.944152832" y="825" type="line"/>
			<point x="608.9535522461" y="825" type="line" smooth="yes"/>
			<point x="708.5085449219" y="825"/>
			<point x="784.3767700195" y="965.309753418"/>
			<point x="808.6586303711" y="1117.0172119141" type="qcurve" smooth="yes"/>
			<point x="828.459777832" y="1244.7434082031"/>
			<point x="792.3143310547" y="1353.0344238281"/>
			<point x="731.3876953125" y="1353.0344238281" type="qcurve" smooth="yes"/>
			<point x="562.9149780273" y="1353.0344238281" type="line"/>
			<point x="514.1063842773" y="1324.6903686523" type="line"/>
			<point x="395.5404663086" y="734" type="line"/>
			<point x="286.8610229492" y="109.0029296875" type="line"/>
			<point x="460.2857055664" y="103.0029296875" type="line"/>
			<point x="454.3251342773" y="0" type="line"/>
		</contour>
		<contour>
			<point x="616" y="792" type="line"/>
			<point x="802.1275634766" y="750" type="line"/>
			<point x="804.7802124023" y="673.9108886719" type="line" smooth="yes"/>
			<point x="824.3727416992" y="407.6027832031"/>
			<point x="860.9822387695" y="161.520690918"/>
			<point x="1051.0758666992" y="153.6470336914" type="qcurve"/>
			<point x="1031.0723266602" y="0" type="line"/>
			<point x="976.932800293" y="0" type="line" smooth="yes"/>
			<point x="779.8821411133" y="0"/>
			<point x="656" y="447"/>
			<point x="609.3453369141" y="690.5737304688" type="qcurve" smooth="yes"/>
		</contour>
	</outline>
	<anchor name="bottom" x="573" y="0"/>
	<anchor name="top" x="670" y="1500"/>
</glyph>
<glyph name="S" format="2">
	<unicode hex="0053"/>
	<advance width="1035"/>
	<outline>
		<contour>
			<point x="-55.3417358398" y="12.5759887695" type="line"/>
			<point x="47.6768798828" y="472.6965942383" type="line"/>
			<point x="156.2092285156" y="464.6965942383" type="line"/>
			<point x="146.2092285156" y="309.145690918" type="line" smooth="yes"/>
			<point x="140.2092285156" y="216.145690918"/>
			<point x="181.6680908203" y="117.145690918"/>
			<point x="361.3012695312" y="111.145690918" type="qcurve" smooth="yes"/>
			<point x="502.4302978516" y="105.145690918"/>
			<point x="747.6987304688" y="232.6549072266"/>
			<point x="757.6987304688" y="352.4246826172" type="qcurve" smooth="yes"/>
			<point x="766.6987304688" y="521.3104858398"/>
			<point x="482.9166870117" y="685.7003173828"/>
			<point x="364.4349975586" y="799.2026367188" type="qcurve" smooth="yes"/>
			<point x="282.1687011719" y="884.3522338867"/>
			<point x="149.9424438477" y="1121.9093017578"/>
			<point x="183.9424438477" y="1265.323425293" type="qcurve" smooth="yes"/>
			<point x="221.9424438477" y="1337.5593261719"/>
			<point x="546.5043945312" y="1524"/>
			<point x="680.7221679688" y="1524" type="qcurve" smooth="yes"/>
			<point x="842.0829467773" y="1524"/>
			<point x="1011.205871582" y="1443.5556640625"/>
			<point x="1000.794128418" y="1455" type="qcurve"/>
			<point x="1041.6051025391" y="1521.2899780273" type="line"/>
			<point x="1123.5356445312" y="1505.2689208984" type="line"/>
			<point x="1039.8490600586" y="1089.4528198242" type="line"/>
			<point x="920.2012329102" y="1089.4528198242" type="line"/>
			<point x="942.2012329102" y="1242.8355712891" type="line"/>
			<point x="952.2012329102" y="1303.8355712891"/>
			<point x="824.3349609375" y="1390.8355712891"/>
			<point x="698.8576660156" y="1390.8355712891" type="qcurve" smooth="yes"/>
			<point x="592.0526733398" y="1390.8355712891"/>
			<point x="397.5796508789" y="1272.6865234375"/>
			<point x="388.5200195312" y="1186.5427246094" type="qcurve" smooth="yes"/>
			<point x="377.4603881836" y="1045.6750488281"/>
			<point x="592.0134887695" y="941.8001098633"/>
			<point x="653.5775756836" y="892.674621582" type="qcurve" smooth="yes"/>
			<point x="828.8810424805" y="734.0102539062"/>
			<point x="975.2526855469" y="514.3296508789"/>
			<point x="945.4893188477" y="330.4611816406" type="qcurve" smooth="yes"/>
			<point x="911.7259521484" y="157.2131347656"/>
			<point x="617.4999389648" y="-21"/>
			<point x="430.0607910156" y="-21" type="qcurve" smooth="yes"/>
			<point x="209.3779907227" y="-21"/>
			<point x="103.2576293945" y="72.7650146484"/>
			<point x="101.6960449219" y="65.4399414062" type="qcurve"/>
			<point x="26.7595214844" y="3.9008178711" type="line"/>
		</contour>
	</outline>
	<anchor name="bottom" x="399" y="0"/>
	<anchor name="top" x="679" y="1500"/>
</glyph>
<glyph name="U" format="2">
	<unicode hex="0055"/>
	<advance width="1349"/>
	<outline>
		<contour>
			<point x="161.7169799805" y="1389.9970703125" type="line"/>
			<point x="169.7330932617" y="1500" type="line"/>
			<point x="719.1632967863" y="1500" type="line"/>
			<point x="701.147183505" y="1389.9970703125" type="line"/>
			<point x="539.2426147461" y="1364.9970703125" type="line"/>
			<point x="434.5631713867" y="801" type="line" smooth="yes"/>
			<point x="388.1220092773" y="549.8141479492"/>
			<point x="358.4639892578" y="320.8734130859"/>
			<point x="370.3468295011" y="254.1284790039" type="qcurve" smooth="yes"/>
			<point x="397.0191040039" y="231.8126220703"/>
			<point x="484.3300448331" y="92.0762329102"/>
			<point x="559.9558382902" y="92.0762329102" type="qcurve" smooth="yes"/>
			<point x="739.3340731534" y="92.0762329102"/>
			<point x="856.923367587" y="288.6596069336"/>
			<point x="896.10226163" y="473.5043945312" type="qcurve" smooth="yes"/>
			<point x="963.7864657316" y="801" type="line"/>
			<point x="1073.4659090909" y="1354.9970703125" type="line"/>
			<point x="866.2464266691" y="1389.9970703125" type="line"/>
			<point x="883.322171298" y="1500" type="line"/>
			<point x="1417.5854159269" y="1500" type="line"/>
			<point x="1409.5693026456" y="1389.9970703125" type="line"/>
			<point x="1207.4804354581" y="1354.9970703125" type="line"/>
			<point x="1097.8606234464" y="801" type="line"/>
			<point x="1036.8606234464" y="465" type="line" smooth="yes"/>
			<point x="1000.6836214933" y="265.8323364258"/>
			<point x="860.5284701261" y="-29"/>
			<point x="569.8048983488" y="-29" type="qcurve" smooth="yes"/>
			<point x="438.27804288" y="-29"/>
			<point x="210.2904052734" y="173"/>
			<point x="180.6181307706" y="353" type="qcurve" smooth="yes"/>
			<point x="167.7352905273" y="446"/>
			<point x="210.7352905273" y="675"/>
			<point x="238.7352905273" y="801" type="qcurve" smooth="yes"/>
			<point x="360.4147338867" y="1364.9970703125" type="line"/>
		</contour>
	</outline>
	<anchor name="bottom" x="588" y="0"/>
	<anchor name="ogonek" x="810" y="0"/>
	<anchor name="top" x="908" y="1500"/>
	<anchor name="topright" x="1561" y="1500"/>
</glyph>
<glyph name="V" format="2">
	<unicode hex="0056"/>
	<advance width="1230"/>
	<outline>
		<contour>
			<point x="79.0355224609" y="1381.4771728516" type="line"/>
			<point x="93.7595214844" y="1500" type="line"/>
			<point x="529.1385498047" y="1500" type="line"/>
			<point x="515.4945068359" y="1386.5169677734" type="line"/>
			<point x="332.5249023438" y="1349.9970703125" type="line"/>
			<point x="387.3106689453" y="700.8530883789" type="line"/>
			<point x="410.8452758789" y="250.7277832031" type="line"/>
			<point x="416.4512329102" y="132.0015869141" type="line"/>
			<point x="429.4512329102" y="132.0015869141" type="line"/>
			<point x="480.3361816406" y="248.311340332" type="line"/>
			<point x="780.6096191406" y="886.2565917969" type="line"/>
			<point x="1021.0928955078" y="1348.9970703125" type="line"/>
			<point x="816.9791259766" y="1385.1569824219" type="line"/>
			<point x="832.7969970703" y="1500" type="line"/>
			<point x="1341.1252441406" y="1500" type="line"/>
			<point x="1327.2274169922" y="1386.1171875" type="line"/>
			<point x="1140.3115234375" y="1348.9970703125" type="line"/>
			<point x="871.2619628906" y="800.6483154297" type="line"/>
			<point x="522.0375976562" y="0" type="line"/>
			<point x="313.6262207031" y="0" type="line"/>
			<point x="246.5421142578" y="728.5931396484" type="line"/>
			<point x="201.8638916016" y="1349.9970703125" type="line"/>
		</contour>
	</outline>
	<anchor name="bottom" x="373" y="0"/>
	<anchor name="top" x="743" y="1500"/>
</glyph>
<glyph name="W" format="2">
	<unicode hex="0057"/>
	<advance width="1977"/>
	<outline>
		<contour>
			<point x="55.9013671875" y="1387.9970703125" type="line"/>
			<point x="58.7001953125" y="1500" type="line"/>
			<point x="511.3801269531" y="1500" type="line"/>
			<point x="518.5812988281" y="1387.9970703125" type="line"/>
			<point x="388.44921875" y="1350.9970703125" type="line"/>
			<point x="379.9442749023" y="837.7434082031" type="line"/>
			<point x="410" y="400" type="line"/>
			<point x="410" y="271" type="line"/>
			<point x="427" y="271" type="line"/>
			<point x="497" y="400" type="line"/>
			<point x="743.8391723633" y="718.548828125" type="line"/>
			<point x="913" y="1121" type="line"/>
			<point x="916.7790527344" y="1350.9970703125" type="line"/>
			<point x="791.9514160156" y="1383.9970703125" type="line"/>
			<point x="793.2719726562" y="1500" type="line"/>
			<point x="1255.4048461914" y="1500" type="line"/>
			<point x="1255.0408325195" y="1390.9970703125" type="line"/>
			<point x="1083.8218383789" y="1350.9970703125" type="line"/>
			<point x="1112.309387207" y="880.3943481445" type="line"/>
			<point x="1094" y="400" type="line"/>
			<point x="1094" y="271" type="line"/>
			<point x="1111" y="271" type="line"/>
			<point x="1177" y="400" type="line"/>
			<point x="1491.8270263672" y="787.2570800781" type="line"/>
			<point x="1751.4207763672" y="1340.9970703125" type="line"/>
			<point x="1566.1578369141" y="1388.9970703125" type="line"/>
			<point x="1579.6956787109" y="1500" type="line"/>
			<point x="2112.330078125" y="1500" type="line"/>
			<point x="1972" y="1385" type="line"/>
			<point x="1895.66015625" y="1345.9970703125" type="line"/>
			<point x="1575.870300293" y="685.4317016602" type="line"/>
			<point x="1210.8574829102" y="0" type="line"/>
			<point x="981.4447631836" y="0" type="line"/>
			<point x="923" y="805" type="line"/>
			<point x="921" y="934" type="line"/>
			<point x="911" y="934" type="line"/>
			<point x="844" y="805" type="line"/>
			<point x="414.3314208984" y="0" type="line"/>
			<point x="250.8272094727" y="0" type="line"/>
			<point x="230.8246459961" y="776.6638793945" type="line"/>
			<point x="206.2944335938" y="1350.9970703125" type="line"/>
		</contour>
	</outline>
	<anchor name="bottom" x="691" y="0"/>
	<anchor name="top" x="981" y="1500"/>
</glyph>
<glyph name="X" format="2">
	<unicode hex="0058"/>
	<advance width="1216"/>
	<outline>
		<contour>
			<point x="-130.8792114258" y="0" type="line"/>
			<point x="-116.7013549805" y="98.0029296875" type="line"/>
			<point x="53.9524536133" y="127.0029296875" type="line"/>
			<point x="513" y="764" type="line"/>
			<point x="217.1403808594" y="1360.9970703125" type="line"/>
			<point x="75.4431152344" y="1396.9970703125" type="line"/>
			<point x="73.9809570312" y="1500" type="line"/>
			<point x="518.2642211914" y="1500" type="line"/>
			<point x="519.7263793945" y="1396.9970703125" type="line"/>
			<point x="392.4639282227" y="1362.9970703125" type="line"/>
			<point x="581" y="1027" type="line"/>
			<point x="627" y="913" type="line"/>
			<point x="638" y="913" type="line"/>
			<point x="724" y="1027" type="line"/>
			<point x="836.8082885742" y="1349.9970703125" type="line"/>
			<point x="682.7631225586" y="1396.9970703125" type="line"/>
			<point x="695.3009643555" y="1500" type="line"/>
			<point x="1216.9730834961" y="1500" type="line"/>
			<point x="1201.4352416992" y="1396.9970703125" type="line"/>
			<point x="1019.9987182617" y="1360.9970703125" type="line"/>
			<point x="670" y="808" type="line"/>
			<point x="916.0264892578" y="123.0029296875" type="line"/>
			<point x="1104.5499267578" y="93.0029296875" type="line"/>
			<point x="1120.3720703125" y="0" type="line"/>
			<point x="618.9257202148" y="0" type="line"/>
			<point x="613.1035766602" y="93.0029296875" type="line"/>
			<point x="757.8442993164" y="122.0029296875" type="line"/>
			<point x="603" y="544" type="line"/>
			<point x="556" y="658" type="line"/>
			<point x="546" y="658" type="line"/>
			<point x="461" y="544" type="line"/>
			<point x="235.1428833008" y="133.0029296875" type="line"/>
			<point x="391.1880493164" y="98.0029296875" type="line"/>
			<point x="382.3199462891" y="0" type="line"/>
		</contour>
	</outline>
	<anchor name="bottom" x="453" y="0"/>
	<anchor name="top" x="723" y="1500"/>
	<anchor name="cy_descender" x="1125" y="100"/>
	<anchor name="center" x="591" y="791"/>
</glyph>
<glyph name="Y" format="2">
	<unicode hex="0059"/>
	<advance width="1019"/>
	<outline>
		<contour>
			<point x="54.0156860352" y="0" type="line"/>
			<point x="58.1935424805" y="98.0029296875" type="line"/>
			<point x="266.8478393555" y="123.0029296875" type="line"/>
			<point x="363.6482543945" y="591.4509277344" type="line"/>
			<point x="333.0724487305" y="891.4077758789" type="line"/>
			<point x="214.6019287109" y="1350.9970703125" type="line"/>
			<point x="84.2525634766" y="1392.9970703125" type="line"/>
			<point x="73.7904052734" y="1500" type="line"/>
			<point x="531.5999755859" y="1500" type="line"/>
			<point x="532.0621337891" y="1392.9970703125" type="line"/>
			<point x="373.7996826172" y="1363.9970703125" type="line"/>
			<point x="436.994934082" y="1028.157043457" type="line"/>
			<point x="609" y="783" type="line"/>
			<point x="619" y="783" type="line"/>
			<point x="824" y="1077" type="line"/>
			<point x="782.0041503906" y="1347.9970703125" type="line"/>
			<point x="600.3500976562" y="1387.9970703125" type="line"/>
			<point x="626.8879394531" y="1500" type="line"/>
			<point x="1106.3051147461" y="1500" type="line"/>
			<point x="1089.7672729492" y="1387.9970703125" type="line"/>
			<point x="900.4179077148" y="1346.9970703125" type="line"/>
			<point x="903" y="1013" type="line"/>
			<point x="540.4325561523" y="607.2061157227" type="line"/>
			<point x="443.9147338867" y="123.0029296875" type="line"/>
			<point x="663.0907592773" y="98.0029296875" type="line"/>
			<point x="657.912902832" y="0" type="line"/>
		</contour>
	</outline>
	<anchor name="bottom" x="443" y="0"/>
	<anchor name="top" x="731" y="1500"/>
	<anchor name="tonos" x="-13" y="1500"/>
	<anchor name="center" x="553" y="579"/>
</glyph>
<glyph name="a" format="2">
	<unicode hex="0061"/>
	<advance width="911"/>
	<outline>
		<contour>
			<point x="-43.0026855469" y="309" type="qcurve" smooth="yes"/>
			<point x="-72.9779663086" y="569.4291992188"/>
			<point x="323.0724487305" y="1005.7630615234"/>
			<point x="502.4967651367" y="1005.7630615234" type="qcurve" smooth="yes"/>
			<point x="597.1325073242" y="1005.7630615234"/>
			<point x="712.6439819336" y="931.7630615234"/>
			<point x="743.3134155273" y="897.7630615234" type="qcurve"/>
			<point x="711.4768676758" y="1006.7630615234" type="line"/>
			<point x="804.655456543" y="1006.7630615234" type="line"/>
			<point x="890.0025024414" y="799.7630615234" type="line"/>
			<point x="788.026550293" y="415" type="line"/>
			<point x="750.6005859375" y="225" type="line"/>
			<point x="772.1873779297" y="176"/>
			<point x="812.6940307617" y="91"/>
			<point x="843.3849487305" y="46" type="qcurve"/>
			<point x="608.5942382812" y="-18" type="line"/>
			<point x="592.2370605469" y="26.628112793"/>
			<point x="589.258972168" y="166.4794311523"/>
			<point x="583.8044433594" y="239.2315063477" type="qcurve"/>
			<point x="439.2111816406" y="117.6068725586"/>
			<point x="233.1039428711" y="-10"/>
			<point x="166.3619995117" y="-10" type="qcurve" smooth="yes"/>
			<point x="73.0579833984" y="-10"/>
			<point x="-29.7464599609" y="148"/>
		</contour>
		<contour>
			<point x="143.0452880859" y="233.0035400391" type="qcurve" smooth="yes"/>
			<point x="152.6320800781" y="196.6229248047"/>
			<point x="215.8203735352" y="148.0848999023"/>
			<point x="278.0022583008" y="148.0848999023" type="qcurve" smooth="yes"/>
			<point x="405.0354614258" y="148.0848999023"/>
			<point x="590.2053833008" y="384"/>
			<point x="622.2711791992" y="531" type="qcurve" smooth="yes"/>
			<point x="699.7224731445" y="844.6781616211" type="line"/>
			<point x="691.1770019531" y="875.6781616211"/>
			<point x="612.6121826172" y="900.5518798828"/>
			<point x="567.5625610352" y="900.5518798828" type="qcurve" smooth="yes"/>
			<point x="370.8433227539" y="900.5518798828"/>
			<point x="112.3675537109" y="290.4291992188"/>
		</contour>
	</outline>
	<anchor name="bottom" x="345" y="0"/>
	<anchor name="ogonek" x="732" y="0"/>
	<anchor name="top" x="608" y="1000"/>
</glyph>
<glyph name="c" format="2">
	<unicode hex="0063"/>
	<advance width="948"/>
	<outline>
		<contour>
			<point x="7.2172851562" y="506.0004882812" type="qcurve" smooth="yes"/>
			<point x="62.0268554688" y="760.0959472656"/>
			<point x="498.5682373047" y="1032.0009765625"/>
			<point x="622.8757324219" y="1032.0009765625" type="qcurve" smooth="yes"/>
			<point x="739.5056762695" y="1032.0009765625"/>
			<point x="901.9279174805" y="893.6981811523"/>
			<point x="901.9279174805" y="815.0303344727" type="qcurve" smooth="yes"/>
			<point x="901.9279174805" y="756.0770263672"/>
			<point x="853.994140625" y="655.8849487305"/>
			<point x="801.4627685547" y="630.8849487305" type="qcurve"/>
			<point x="720.5305786133" y="630.8849487305" type="line"/>
			<point x="721.5781860352" y="831.5354614258" type="line" smooth="yes"/>
			<point x="721.5781860352" y="882.5354614258"/>
			<point x="695.3483276367" y="936.5354614258"/>
			<point x="599.8905639648" y="936.5354614258" type="qcurve" smooth="yes"/>
			<point x="429.236328125" y="936.5354614258"/>
			<point x="277.8069458008" y="809.4427490234"/>
			<point x="201.0625" y="508.5242919922" type="qcurve" smooth="yes"/>
			<point x="126.9995117188" y="223.4312133789"/>
			<point x="211.4392089844" y="63.8790283203"/>
			<point x="335.5567626953" y="63.8790283203" type="qcurve" smooth="yes"/>
			<point x="493.8061523438" y="63.8790283203"/>
			<point x="757.1702880859" y="189.6073608398"/>
			<point x="854.5784301758" y="327.0191040039" type="qcurve"/>
			<point x="905.7181396484" y="273" type="line"/>
			<point x="905.7181396484" y="203" type="line"/>
			<point x="822.3010864258" y="103.475769043"/>
			<point x="562.6076049805" y="-33"/>
			<point x="338.8532104492" y="-33" type="qcurve" smooth="yes"/>
			<point x="175.9607543945" y="-33"/>
			<point x="-49.1160888672" y="245.3336181641"/>
		</contour>
	</outline>
	<anchor name="bottom" x="343" y="0"/>
	<anchor name="top" x="600" y="1000"/>
</glyph>
<glyph name="d" format="2">
	<unicode hex="0064"/>
	<advance width="926"/>
	<outline>
		<contour>
			<point x="-42.2026367188" y="268.5240478516" type="qcurve" smooth="yes"/>
			<point x="-26.2026367188" y="569.6196289062"/>
			<point x="353.6768188477" y="966.0776367188"/>
			<point x="640.436706543" y="987.0010986328" type="qcurve" smooth="yes"/>
			<point x="771.8995361328" y="987.0010986328" type="line"/>
			<point x="872.3248291016" y="1447.6381835938" type="line"/>
			<point x="728.2009277344" y="1509.9418945312" type="line"/>
			<point x="744.1614990234" y="1574.9448242188" type="line"/>
			<point x="983.9306640625" y="1648.6411132812" type="line"/>
			<point x="1056.9306640625" y="1547.6411132812" type="line"/>
			<point x="782.1965332031" y="469" type="line"/>
			<point x="711.7569580078" y="146.0029296875" type="line"/>
			<point x="857.7606201172" y="133.69921875" type="line"/>
			<point x="859.8000488281" y="44.6962890625" type="line"/>
			<point x="639.4860839844" y="-8" type="line"/>
			<point x="574.4860839844" y="104" type="line"/>
			<point x="555.4860839844" y="200" type="line"/>
			<point x="524.2247924805" y="128.0952148438"/>
			<point x="212.854309082" y="-10"/>
			<point x="174.9608154297" y="-10" type="qcurve" smooth="yes"/>
			<point x="46.6693115234" y="-10"/>
			<point x="-49.2026367188" y="133.9525146484"/>
		</contour>
		<contour>
			<point x="147.8634643555" y="291.271484375" type="qcurve" smooth="yes"/>
			<point x="130.8634643555" y="223.6221313477"/>
			<point x="189.4741210938" y="153.6402587891"/>
			<point x="246.4379272461" y="153.6402587891" type="qcurve" smooth="yes"/>
			<point x="373.204284668" y="153.6402587891"/>
			<point x="556.4141235352" y="298.479309082"/>
			<point x="610.8360595703" y="511.3979492188" type="qcurve" smooth="yes"/>
			<point x="704.3112792969" y="849.7103271484" type="line"/>
			<point x="697.8071289062" y="873.7103271484"/>
			<point x="649.4944458008" y="907.7103271484"/>
			<point x="608.1968994141" y="907.7103271484" type="qcurve" smooth="yes"/>
			<point x="446.2890625" y="907.7103271484"/>
			<point x="245.8634643555" y="633.1420898438"/>
		</contour>
	</outline>
	<anchor name="bottom" x="604" y="0"/>
	<anchor name="center" x="876" y="1202"/>
	<anchor name="top" x="704" y="1534"/>
	<anchor name="topright" x="1076" y="1000"/>
	<anchor name="liga" x="1067" y="0"/>
</glyph>
<glyph name="e" format="2">
	<unicode hex="0065"/>
	<advance width="845"/>
	<outline>
		<contour>
			<point x="20.9511237202" y="563.6968383789" type="qcurve" smooth="yes"/>
			<point x="56.6950202046" y="769.8947753906"/>
			<point x="346.1079230366" y="1028.9057617188"/>
			<point x="581.1454596577" y="1028.9057617188" type="qcurve" smooth="yes"/>
			<point x="745.5637946186" y="1028.9057617188"/>
			<point x="885.9456915913" y="844.0061645508"/>
			<point x="851.8687262592" y="725.7734985352" type="qcurve" smooth="yes"/>
			<point x="832.3138556538" y="683.178527832"/>
			<point x="802.6822638569" y="629.2438964844"/>
			<point x="796.4621710835" y="616.6196289062" type="qcurve"/>
			<point x="817.9383673725" y="594.6196289062" type="line"/>
			<point x="790.2234015522" y="505.42578125" type="line"/>
			<point x="860.147534853" y="501.857421875"/>
			<point x="762.2861456928" y="494.5834350586"/>
			<point x="775.4384284077" y="494.42578125" type="qcurve" smooth="yes"/>
			<point x="109.6941046772" y="491.42578125" type="line"/>
			<point x="109.9328742085" y="586.4293212891" type="line"/>
			<point x="730.2392706928" y="590.6196289062" type="line"/>
			<point x="739.2863898335" y="614.8411865234"/>
			<point x="761.8256354389" y="715.1408081055"/>
			<point x="762.2802252827" y="773.7274780273" type="qcurve" smooth="yes"/>
			<point x="767.299878603" y="873.758605957"/>
			<point x="689.1632208882" y="929.440246582"/>
			<point x="614.5435309467" y="929.440246582" type="qcurve" smooth="yes"/>
			<point x="450.7313971577" y="929.440246582"/>
			<point x="220.8258185444" y="710.3896484375"/>
			<point x="179.4090704975" y="515.6196289062" type="qcurve" smooth="yes"/>
			<point x="142.1251349507" y="333.1599731445"/>
			<point x="190.2351203022" y="57.9961547852"/>
			<point x="316.9266486225" y="63.2948608398" type="qcurve" smooth="yes"/>
			<point x="497.1127448139" y="64.016784668"/>
			<point x="688.0149664936" y="207.4257202148"/>
			<point x="753.1765265522" y="310.9239501953" type="qcurve"/>
			<point x="775.7738165913" y="270.8760375977" type="line"/>
			<point x="783.443250185" y="188.5784912109" type="line"/>
			<point x="772.045178896" y="155.3446655273"/>
			<point x="545.3993048725" y="-27.1035766602"/>
			<point x="437.1634650288" y="-32.1239624023" type="qcurve" smooth="yes"/>
			<point x="261.2539801655" y="-40.9345092773"/>
			<point x="-33.4720940533" y="283.766784668"/>
		</contour>
	</outline>
	<anchor name="bottom" x="339" y="0"/>
	<anchor name="ogonek" x="495" y="0"/>
	<anchor name="top" x="601" y="1000"/>
</glyph>
<glyph name="f" format="2">
	<unicode hex="0066"/>
	<advance width="466"/>
	<outline>
		<contour>
			<point x="-504.5670166016" y="-435.7836914062" type="line" smooth="yes"/>
			<point x="-497.8547363281" y="-366.8661499023" type="line"/>
			<point x="-365.0161132812" y="-365.9551391602" type="line" smooth="yes"/>
			<point x="-193.2106323242" y="-365.044128418"/>
			<point x="-60.446472168" y="-236.5302124023"/>
			<point x="-1.2440795898" y="39.3556518555" type="qcurve" smooth="yes"/>
			<point x="170.0712890625" y="817.0009765625" type="line"/>
			<point x="178.7153320312" y="854.0009765625" type="line"/>
			<point x="242.2497558594" y="1214.4357910156" type="line" smooth="yes"/>
			<point x="283.9376831055" y="1464.9495849609"/>
			<point x="446.4306030273" y="1622.4357910156"/>
			<point x="540.6418457031" y="1622.4357910156" type="qcurve" smooth="yes"/>
			<point x="642.0923461914" y="1622.4357910156"/>
			<point x="773.3940429688" y="1524.6727905273"/>
			<point x="773.3940429688" y="1455.0205078125" type="qcurve" smooth="yes"/>
			<point x="773.3940429688" y="1400.3682250977"/>
			<point x="745.6049804688" y="1334.3508911133"/>
			<point x="769.8505859375" y="1334.3508911133" type="qcurve" smooth="yes"/>
			<point x="731.8505859375" y="1334.3508911133"/>
			<point x="682.8505859375" y="1359.3508911133"/>
			<point x="662.8505859375" y="1395.3508911133" type="qcurve" smooth="yes"/>
			<point x="642.8505859375" y="1432.3508911133"/>
			<point x="562.5881347656" y="1496.3993530273"/>
			<point x="526.9018554688" y="1496.3993530273" type="qcurve" smooth="yes"/>
			<point x="471.8173828125" y="1496.3993530273"/>
			<point x="399.4588623047" y="1396.8327026367"/>
			<point x="391.8897705078" y="1343.3508911133" type="qcurve" smooth="yes"/>
			<point x="314.5064697266" y="850.0009765625" type="line"/>
			<point x="321.5064697266" y="827.0009765625" type="line"/>
			<point x="147.7919921875" y="67" type="line" smooth="yes"/>
			<point x="79.0322875977" y="-235.9612426758"/>
			<point x="-47.7837524414" y="-495.6947021484"/>
			<point x="-183.529296875" y="-494.7836914062" type="qcurve"/>
		</contour>
		<contour>
			<point x="15.0648193359" y="820.8364868164" type="line"/>
			<point x="36.7153320312" y="910.0009765625" type="line"/>
			<point x="225.7153320312" y="952.0009765625" type="line"/>
			<point x="579.654296875" y="954.0009765625" type="line"/>
			<point x="540.6698608398" y="846.8364868164" type="line"/>
			<point x="270.1085205078" y="831.8364868164" type="line"/>
			<point x="255.3173828125" y="803.8364868164" type="line"/>
		</contour>
	</outline>
	<anchor name="bottom" x="217" y="0"/>
	<anchor name="top" x="554" y="1536"/>
</glyph>
<glyph name="g" format="2">
	<unicode hex="0067"/>
	<advance width="849"/>
	<outline>
		<contour>
			<point x="-67.7153320312" y="294.6667480469" type="qcurve" smooth="yes"/>
			<point x="-108.4840087891" y="567.6070556641"/>
			<point x="253.196472168" y="1003.1440429688"/>
			<point x="534.4934692383" y="1003.1440429688" type="qcurve" smooth="yes"/>
			<point x="647.9149780273" y="1003.1440429688"/>
			<point x="790.3231201172" y="929.1440429688"/>
			<point x="827.7446289062" y="894.1440429688" type="qcurve"/>
			<point x="606.5823974609" y="993.1440429688" type="line"/>
			<point x="792.5823974609" y="993.1440429688" type="line"/>
			<point x="872.1062011719" y="798.1440429688" type="line"/>
			<point x="766.5345458984" y="444" type="line" smooth="yes"/>
			<point x="724.4869384766" y="293.4761962891"/>
			<point x="706.0779418945" y="199.4772949219"/>
			<point x="676.2269287109" y="87.4619140625" type="qcurve" smooth="yes"/>
			<point x="584.7885742188" y="-245.2849731445"/>
			<point x="309.5733642578" y="-503.0451660156"/>
			<point x="212.7123413086" y="-493.0451660156" type="qcurve"/>
			<point x="121.9481201172" y="-437.0451660156" type="line"/>
			<point x="139.3884277344" y="-376.4022216797" type="line"/>
			<point x="172.4296875" y="-376.4022216797" type="line" smooth="yes"/>
			<point x="377.5125732422" y="-370.6542358398"/>
			<point x="507.8655395508" y="-172.7587280273"/>
			<point x="557.5347900391" y="-12.5380859375" type="qcurve" smooth="yes"/>
			<point x="615.4705200195" y="186.5950927734" type="line"/>
			<point x="507.3382568359" y="117.620300293"/>
			<point x="252.7147827148" y="-11"/>
			<point x="195.7846679688" y="-11" type="qcurve" smooth="yes"/>
			<point x="85.1763916016" y="-11"/>
			<point x="-47.7896728516" y="169.5832519531"/>
		</contour>
		<contour>
			<point x="63.577331543" y="264.6356201172" type="qcurve" smooth="yes"/>
			<point x="76.998840332" y="213.1452636719"/>
			<point x="158.9448852539" y="160.1315917969"/>
			<point x="224.1490478516" y="160.1315917969" type="qcurve" smooth="yes"/>
			<point x="356.6674804688" y="160.1315917969"/>
			<point x="578.8303222656" y="358.0657958984"/>
			<point x="626.747253418" y="526.6193847656" type="qcurve" smooth="yes"/>
			<point x="723.6510620117" y="852.3930664062" type="line"/>
			<point x="718.8163452148" y="876.3930664062"/>
			<point x="625.715637207" y="899.3930664062"/>
			<point x="572.5967407227" y="899.3930664062" type="qcurve" smooth="yes"/>
			<point x="358.9963378906" y="899.3930664062"/>
			<point x="22.3541259766" y="352.0305786133"/>
		</contour>
	</outline>
	<anchor name="bottom" x="324" y="-416"/>
	<anchor name="top" x="603" y="1000"/>
</glyph>
<glyph name="h" format="2">
	<unicode hex="0068"/>
	<advance width="994"/>
	<outline>
		<contour>
			<point x="38.7868652344" y="-16" type="line"/>
			<point x="2.7868652344" y="101" type="line"/>
			<point x="135.7868652344" y="584" type="line"/>
			<point x="346.1569824219" y="1457.9912109375" type="line"/>
			<point x="152.8765869141" y="1511.4462890625" type="line"/>
			<point x="177.8371582031" y="1579.44921875" type="line"/>
			<point x="408.412109375" y="1646.994140625" type="line"/>
			<point x="493.2341308594" y="1540.994140625" type="line"/>
			<point x="310.0014648438" y="720" type="line"/>
			<point x="186.0014648438" y="223" type="line"/>
			<point x="196.0014648438" y="30" type="line"/>
		</contour>
		<contour>
			<point x="706.9864501953" y="-8" type="line"/>
			<point x="632.9864501953" y="187" type="line"/>
			<point x="786.0646362305" y="744.9938964844" type="line" smooth="yes"/>
			<point x="800.6995849609" y="798.2637939453"/>
			<point x="738.4251098633" y="842.9938964844"/>
			<point x="670.5864868164" y="842.9938964844" type="qcurve" smooth="yes"/>
			<point x="578.5759887695" y="842.9938964844"/>
			<point x="360.8760375977" y="709.0118408203"/>
			<point x="244.8138427734" y="541.7821655273" type="qcurve"/>
			<point x="208.295715332" y="608.5280151367" type="line"/>
			<point x="348.7944946289" y="831.6357421875"/>
			<point x="652.0511474609" y="1021.0009765625"/>
			<point x="699.4066162109" y="1021.0009765625" type="qcurve" smooth="yes"/>
			<point x="816.3377685547" y="1021.0009765625"/>
			<point x="960.2206420898" y="725.2454833984"/>
			<point x="917.3917236328" y="585.0009765625" type="qcurve" smooth="yes"/>
			<point x="788.4416503906" y="148.0029296875" type="line"/>
			<point x="933.2788085938" y="132.94140625" type="line"/>
			<point x="936.3182373047" y="43.9384765625" type="line"/>
		</contour>
	</outline>
	<anchor name="bottom" x="420" y="0"/>
	<anchor name="center" x="347" y="1202"/>
	<anchor name="top" x="424" y="1534"/>
</glyph>
<glyph name="l" format="2">
	<unicode hex="006C"/>
	<advance width="393"/>
	<outline>
		<contour>
			<point x="42.2169189453" y="-8" type="line"/>
			<point x="-23.7830810547" y="185" type="line"/>
			<point x="95.2169189453" y="587" type="line"/>
			<point x="308.7852783203" y="1456.6381835938" type="line"/>
			<point x="118.8023681641" y="1514.9418945312" type="line"/>
			<point x="143.7629394531" y="1582.9448242188" type="line"/>
			<point x="397.6931762695" y="1648.6411132812" type="line"/>
			<point x="480.6931762695" y="1543.6411132812" type="line"/>
			<point x="249.1207885742" y="568" type="line"/>
			<point x="153.8013305664" y="149.0029296875" type="line"/>
			<point x="342.0149536133" y="130.6083984375" type="line"/>
			<point x="345.0543823242" y="40.4228515625" type="line"/>
		</contour>
	</outline>
	<anchor name="bottom" x="201" y="0"/>
	<anchor name="center" x="236" y="770"/>
	<anchor name="top" x="436" y="1534"/>
	<anchor name="topright" x="492" y="1000"/>
	<anchor name="centerright" x="707" y="742"/>
	<anchor name="liga" x="567" y="0"/>
</glyph>
<glyph name="n" format="2">
	<unicode hex="006E"/>
	<advance width="1015"/>
	<outline>
		<contour>
			<point x="54.3734741211" y="-51.0671386719" type="line"/>
			<point x="-5.1754760742" y="16.3920898438" type="line"/>
			<point x="123.9956054688" y="552" type="line"/>
			<point x="194.4850463867" y="854.8990478516" type="line"/>
			<point x="53.1256713867" y="853.2037353516" type="line"/>
			<point x="61.5624389648" y="974.2066650391" type="line"/>
			<point x="283.8219604492" y="1000.8908691406" type="line"/>
			<point x="283.1409912109" y="1000.8908691406" type="line"/>
			<point x="307.6246337891" y="701.6612548828" type="line"/>
			<point x="337.4265136719" y="687" type="line"/>
			<point x="190.6743164062" y="138.3920898438" type="line"/>
			<point x="206.533996582" y="3.3563232422" type="line"/>
		</contour>
		<contour>
			<point x="737.2382202148" y="-9" type="line"/>
			<point x="653.7828369141" y="161.7296142578" type="line"/>
			<point x="796.8165893555" y="709.9508056641" type="line" smooth="yes"/>
			<point x="811.953918457" y="768.3501586914"/>
			<point x="779.1901245117" y="862.7004394531"/>
			<point x="694.092590332" y="862.7004394531" type="qcurve" smooth="yes"/>
			<point x="601.9447631836" y="862.7004394531"/>
			<point x="349.8086547852" y="635.0490722656"/>
			<point x="288.2464599609" y="552.2002563477" type="qcurve"/>
			<point x="248.6923828125" y="603.9829101562" type="line"/>
			<point x="337.2354125977" y="790.8294067383"/>
			<point x="666.3579101562" y="1021.0009765625"/>
			<point x="784.0903930664" y="1021.0009765625" type="qcurve" smooth="yes"/>
			<point x="880.6698608398" y="1021.0009765625"/>
			<point x="1005.1002197266" y="855.9756469727"/>
			<point x="968.2810668945" y="737.6232910156" type="qcurve" smooth="yes"/>
			<point x="819.3814697266" y="148.0029296875" type="line"/>
			<point x="958.4986572266" y="132.94140625" type="line"/>
			<point x="961.5380859375" y="43.9384765625" type="line"/>
		</contour>
	</outline>
	<anchor name="bottom" x="522" y="0"/>
	<anchor name="top" x="602" y="1000"/>
	<anchor name="liga" x="1173" y="0"/>
</glyph>
<glyph name="p" format="2">
	<unicode hex="0070"/>
	<advance width="965"/>
	<outline>
		<contour>
			<point x="-108.9572753906" y="-393.0144042969" type="line"/>
			<point x="134.8579101562" y="548" type="line"/>
			<point x="177.0961914062" y="769.5723876953" type="line"/>
			<point x="123.0961914062" y="929.5723876953" type="line"/>
			<point x="41.5720214844" y="1013.5723876953" type="line"/>
			<point x="228.5720214844" y="1013.5723876953" type="line"/>
			<point x="272.2827758789" y="717.9398803711" type="line"/>
			<point x="326.9295654297" y="818.1608886719"/>
			<point x="602.2529296875" y="1025.5723876953"/>
			<point x="694.5726318359" y="1025.5723876953" type="qcurve" smooth="yes"/>
			<point x="847.2866210938" y="1025.5723876953"/>
			<point x="976.7961425781" y="841.5595703125"/>
			<point x="980.9697265625" y="668.2386474609" type="qcurve" smooth="yes"/>
			<point x="1007.8623657227" y="399.7622070312"/>
			<point x="646.970703125" y="10"/>
			<point x="378.1024169922" y="10" type="qcurve" smooth="yes"/>
			<point x="287.7635498047" y="10"/>
			<point x="187.9205322266" y="24"/>
			<point x="155.3337402344" y="29" type="qcurve"/>
			<point x="51.9006347656" y="-392.0114746094" type="line"/>
			<point x="194.6881103516" y="-421.2243652344" type="line"/>
			<point x="172.666015625" y="-488.2272949219" type="line"/>
			<point x="39.0427246094" y="-518.0144042969" type="line"/>
		</contour>
		<contour>
			<point x="184.6676635742" y="207.6696166992" type="line"/>
			<point x="172.1123046875" y="146.7180786133"/>
			<point x="253.6743774414" y="89.7821044922"/>
			<point x="319.9389038086" y="89.7821044922" type="qcurve" smooth="yes"/>
			<point x="520.7873535156" y="89.7821044922"/>
			<point x="737.8258056641" y="225.7781982422"/>
			<point x="820.9612426758" y="729.489440918" type="qcurve" smooth="yes"/>
			<point x="826.9711303711" y="777.2505493164"/>
			<point x="746.4315185547" y="820.01171875"/>
			<point x="654.2028198242" y="820.01171875" type="qcurve" smooth="yes"/>
			<point x="557.9299926758" y="820.01171875"/>
			<point x="375.0355834961" y="730.7591552734"/>
			<point x="304.1429443359" y="664.442565918" type="qcurve"/>
			<point x="252.2385864258" y="463.4290771484" type="line"/>
		</contour>
	</outline>
	<anchor name="bottom" x="599" y="0"/>
	<anchor name="top" x="599" y="1000"/>
</glyph>
<glyph name="r" format="2">
	<unicode hex="0072"/>
	<advance width="837"/>
	<outline>
		<contour>
			<point x="105.2020263672" y="-37.1101074219" type="line"/>
			<point x="22.6469726562" y="201.1101074219" type="line"/>
			<point x="135.9350585938" y="551" type="line"/>
			<point x="187.2448730469" y="817.3016357422" type="line"/>
			<point x="43.9689941406" y="822.5650634766" type="line"/>
			<point x="54.9295654297" y="943.5679931641" type="line"/>
			<point x="88.4458007812" y="993.3045654297" type="line"/>
			<point x="223.4458007812" y="993.3045654297" type="line"/>
			<point x="291.0008544922" y="974.5247802734" type="line"/>
			<point x="312.1577148438" y="570.3980712891" type="line"/>
			<point x="198.8161621094" y="156.9350585938" type="line"/>
			<point x="377.2736816406" y="130.0799560547" type="line"/>
			<point x="387.953125" y="31.9669189453" type="line"/>
		</contour>
		<contour>
			<point x="579.9893378814" y="592.887512207" type="line"/>
			<point x="570.737087761" y="798.6308201274" type="line"/>
			<point x="486.8305936204" y="799.6308201274"/>
			<point x="356.1679158953" y="702.7937808473"/>
			<point x="274.8587117938" y="601.961142393" type="qcurve"/>
			<point x="225.0008544922" y="648.5247802734" type="line"/>
			<point x="340.8862304688" y="787.7027587891"/>
			<point x="569.6358642578" y="1008.3045654297"/>
			<point x="674.3477783203" y="1008.3045654297" type="qcurve" smooth="yes"/>
			<point x="759.4367675781" y="1008.3045654297"/>
			<point x="871.8817138672" y="906.6348876953"/>
			<point x="871.8817138672" y="812.6348876953" type="qcurve" smooth="yes"/>
			<point x="871.8817138672" y="664.6348876953"/>
			<point x="718.970703125" y="592.887512207"/>
			<point x="634.5257568359" y="592.887512207" type="qcurve" smooth="yes"/>
		</contour>
	</outline>
	<anchor name="bottom" x="282" y="0"/>
	<anchor name="top" x="486" y="1000"/>
</glyph>
<glyph name="s" format="2">
	<unicode hex="0073"/>
	<advance width="810"/>
	<outline>
		<contour>
			<point x="-25.9207763672" y="223" type="qcurve" smooth="yes"/>
			<point x="-24.9207763672" y="313"/>
			<point x="55.6174316406" y="398"/>
			<point x="119.5338745117" y="398" type="qcurve" smooth="yes"/>
			<point x="160.5338745117" y="398" type="line"/>
			<point x="158.5338745117" y="206.1938476562" type="line" smooth="yes"/>
			<point x="157.5338745117" y="157.5588989258"/>
			<point x="173.8332519531" y="91.160949707"/>
			<point x="303.4508666992" y="91.160949707" type="qcurve" smooth="yes"/>
			<point x="391.2315673828" y="91.160949707"/>
			<point x="550.9053344727" y="193.8900146484"/>
			<point x="555.9053344727" y="266.6387939453" type="qcurve" smooth="yes"/>
			<point x="560.9053344727" y="339.4750976562"/>
			<point x="469.8043212891" y="360.7537841797"/>
			<point x="332.6331787109" y="439.9799804688" type="qcurve" smooth="yes"/>
			<point x="203.9157104492" y="501.3921508789"/>
			<point x="78.0838623047" y="644.6162109375"/>
			<point x="84.9262084961" y="787.42578125" type="qcurve" smooth="yes"/>
			<point x="93.7685546875" y="863.7150878906"/>
			<point x="382.0061645508" y="1042.0009765625"/>
			<point x="494.7466430664" y="1042.0009765625" type="qcurve" smooth="yes"/>
			<point x="577.2893066406" y="1042.0009765625"/>
			<point x="770.8427734375" y="914.0009765625"/>
			<point x="769.8427734375" y="813.0009765625" type="qcurve" smooth="yes"/>
			<point x="768.8427734375" y="736.4771728516"/>
			<point x="690.6401977539" y="662.0009765625"/>
			<point x="690.8161621094" y="663.0009765625" type="qcurve" smooth="yes"/>
			<point x="593.8161621094" y="665.0009765625" type="line"/>
			<point x="595.8161621094" y="782.2535400391" type="line" smooth="yes"/>
			<point x="596.8161621094" y="808.3969726562"/>
			<point x="529.7444458008" y="904.1099243164"/>
			<point x="464.704284668" y="904.1099243164" type="qcurve" smooth="yes"/>
			<point x="353.7235107422" y="904.1099243164"/>
			<point x="266.2764282227" y="843.3209228516"/>
			<point x="265.2764282227" y="785.4700317383" type="qcurve" smooth="yes"/>
			<point x="264.2764282227" y="723.3073120117"/>
			<point x="359.5981445312" y="647.0114746094"/>
			<point x="471.821105957" y="592.258972168" type="qcurve" smooth="yes"/>
			<point x="600.4086914062" y="524.4722290039"/>
			<point x="771.3682861328" y="402.7766723633"/>
			<point x="766.3682861328" y="269.5861206055" type="qcurve"/>
			<point x="761.9639892578" y="122.6196899414"/>
			<point x="426.2093505859" y="-31"/>
			<point x="273.9531860352" y="-31" type="qcurve" smooth="yes"/>
			<point x="153.3836669922" y="-31"/>
			<point x="-27.9207763672" y="109"/>
		</contour>
	</outline>
	<anchor name="bottom" x="282" y="0"/>
	<anchor name="top" x="446" y="1000"/>
</glyph>
<glyph name="t" format="2">
	<unicode hex="0074"/>
	<advance width="528"/>
	<outline>
		<contour>
			<point x="139.4317016602" y="-35" type="line"/>
			<point x="10.4317016602" y="119" type="line"/>
			<point x="111.4317016602" y="538" type="line"/>
			<point x="162.9545288086" y="813.3122558594" type="line"/>
			<point x="29.9545288086" y="825.3122558594" type="line"/>
			<point x="34.6223754883" y="906.0009765625" type="line"/>
			<point x="236.5288696289" y="939.5560302734"/>
			<point x="363.8744506836" y="1215.158996582"/>
			<point x="309.2969970703" y="1277.0009765625" type="qcurve"/>
			<point x="309.7737426758" y="1277.0009765625" type="line"/>
			<point x="368.7737426758" y="1189.0009765625" type="line"/>
			<point x="240.9133911133" y="510" type="line"/>
			<point x="153.7035522461" y="145.0029296875" type="line"/>
			<point x="339.737121582" y="135.6982421875" type="line"/>
			<point x="329.0171508789" y="42.2553710938" type="line"/>
		</contour>
		<contour>
			<point x="577.3195800781" y="832.3122558594" type="line"/>
			<point x="621.6223754883" y="952.0009765625" type="line"/>
			<point x="548.0573120117" y="952.0009765625" type="line"/>
			<point x="518.7545166016" y="853.3122558594" type="line"/>
		</contour>
	</outline>
	<anchor name="bottom" x="149" y="0"/>
	<anchor name="center" x="262" y="622"/>
	<anchor name="top" x="322" y="1179"/>
	<anchor name="topright" x="600" y="920"/>
</glyph>
<glyph name="u" format="2">
	<unicode hex="0075"/>
	<advance width="981"/>
	<outline>
		<contour>
			<point x="786.3175048828" y="-21" type="line"/>
			<point x="699.3175048828" y="73" type="line"/>
			<point x="665.4487304688" y="312.7662353516" type="line"/>
			<point x="783.5557861328" y="816.5247802734" type="line"/>
			<point x="756.5557861328" y="979.5247802734" type="line"/>
			<point x="946.1938476562" y="1020.5247802734" type="line"/>
			<point x="990.1938476562" y="906.5247802734" type="line"/>
			<point x="813.9555664062" y="288" type="line"/>
			<point x="845.6759033203" y="131.0029296875" type="line"/>
			<point x="927.7930908203" y="134.001953125" type="line"/>
			<point x="925.0727539062" y="44.9990234375" type="line"/>
		</contour>
		<contour>
			<point x="42.2169189453" y="313" type="qcurve" smooth="yes"/>
			<point x="155.2145996094" y="832.5218505859" type="line"/>
			<point x="13.9157714844" y="836.8265380859" type="line"/>
			<point x="20.1563720703" y="950.8294677734" type="line"/>
			<point x="76.5708007812" y="1012.5247802734" type="line"/>
			<point x="247.5708007812" y="1012.5247802734" type="line"/>
			<point x="326.5708007812" y="816.5247802734" type="line"/>
			<point x="213.2858276367" y="341.2111816406" type="line" smooth="yes"/>
			<point x="190.9207763672" y="247.2111816406"/>
			<point x="237.1838378906" y="169.8287963867"/>
			<point x="318.9802246094" y="169.8287963867" type="qcurve" smooth="yes"/>
			<point x="431.6831054688" y="169.8287963867"/>
			<point x="685.1733398438" y="329.2601928711"/>
			<point x="746.0375976562" y="310.4683227539" type="qcurve"/>
			<point x="764.3435668945" y="268.8112792969" type="line"/>
			<point x="719.6728515625" y="202.3018798828"/>
			<point x="346.9452514648" y="-29"/>
			<point x="244.1924438477" y="-29" type="qcurve" smooth="yes"/>
			<point x="205.2835083008" y="-29"/>
			<point x="9.3745727539" y="160"/>
		</contour>
	</outline>
	<anchor name="bottom" x="404" y="0"/>
	<anchor name="ogonek" x="871" y="20"/>
	<anchor name="top" x="572" y="1000"/>
	<anchor name="topright" x="915" y="1000"/>
	<anchor name="cy_descender" x="1018" y="134"/>
</glyph>
<glyph name="v" format="2">
	<unicode hex="0076"/>
	<advance width="845"/>
	<outline>
		<contour>
			<point x="241.2286376953" y="-23" type="line"/>
			<point x="163.1558837891" y="513.0463256836" type="line"/>
			<point x="111.2366943359" y="844.5218505859" type="line"/>
			<point x="-20.9901123047" y="840.9476318359" type="line"/>
			<point x="-19.7900390625" y="954.9505615234" type="line"/>
			<point x="172.154296875" y="1009.5247802734" type="line"/>
			<point x="287.5643310547" y="1009.5247802734" type="line"/>
			<point x="353.6866455078" y="510.9234619141" type="line"/>
			<point x="369.5874633789" y="285.2021484375" type="line"/>
			<point x="368.7946777344" y="189.3147583008" type="line"/>
			<point x="380.7946777344" y="189.3147583008" type="line"/>
			<point x="454.4929199219" y="281.0805053711" type="line"/>
			<point x="645.6309204102" y="511.0126953125"/>
			<point x="717.245300293" y="648.6231689453"/>
			<point x="720.245300293" y="715.7502441406" type="qcurve" smooth="yes"/>
			<point x="722.245300293" y="811.3359375"/>
			<point x="637.9162597656" y="875.8628540039"/>
			<point x="639.9162597656" y="926.1195068359" type="qcurve" smooth="yes"/>
			<point x="640.9162597656" y="952.7625732422"/>
			<point x="705.5271606445" y="1022.5382080078"/>
			<point x="752.5067138672" y="1022.5382080078" type="qcurve" smooth="yes"/>
			<point x="789.7144775391" y="1022.5382080078"/>
			<point x="886.4295043945" y="922.4573364258"/>
			<point x="882.4295043945" y="793.0631713867" type="qcurve" smooth="yes"/>
			<point x="878.4295043945" y="677.4528198242"/>
			<point x="511.0681762695" y="188.2068481445"/>
			<point x="330.8413696289" y="-8" type="qcurve"/>
		</contour>
	</outline>
	<anchor name="bottom" x="513" y="0"/>
	<anchor name="top" x="513" y="1000"/>
</glyph>
<glyph name="w" format="2">
	<unicode hex="0077"/>
	<advance width="1206"/>
	<outline>
		<contour>
			<point x="233.0271606445" y="-26" type="line"/>
			<point x="151.0883178711" y="516.9909667969" type="line"/>
			<point x="102.2386474609" y="843.5218505859" type="line"/>
			<point x="-16.6578369141" y="842.0384521484" type="line"/>
			<point x="-27.697265625" y="954.0413818359" type="line"/>
			<point x="17.1151123047" y="1012.5247802734" type="line"/>
			<point x="258.1151123047" y="1012.5247802734" type="line"/>
			<point x="316.2083740234" y="553.3299560547" type="line"/>
			<point x="339.6871337891" y="329.2832641602" type="line"/>
			<point x="342.1472167969" y="213.1436157227" type="line"/>
			<point x="354.1472167969" y="213.1436157227" type="line"/>
			<point x="407.6716308594" y="307.7601318359" type="line"/>
			<point x="447.5616455078" y="357.369934082"/>
			<point x="479.7122802734" y="391.6996459961"/>
			<point x="523.7039794922" y="446.6145019531" type="qcurve"/>
			<point x="463.3211669922" y="844.2065429688" type="line"/>
			<point x="449.5885620117" y="842.7086791992" type="line"/>
			<point x="417.9982910156" y="960.0590820312" type="line"/>
			<point x="404.4701538086" y="1012.5247802734" type="line"/>
			<point x="595.6278076172" y="1012.5247802734" type="line"/>
			<point x="678.3473510742" y="533.0317993164" type="line"/>
			<point x="707.8325805664" y="327.6976318359" type="line"/>
			<point x="720.4889526367" y="204.630065918" type="line"/>
			<point x="732.4889526367" y="204.630065918" type="line"/>
			<point x="811.6131591797" y="313.8643188477" type="line"/>
			<point x="979.6630249023" y="520.9427490234"/>
			<point x="1074.2679443359" y="644.7062988281"/>
			<point x="1062.5863037109" y="728.8002319336" type="qcurve" smooth="yes"/>
			<point x="1052.7299194336" y="800.6665649414"/>
			<point x="933.3927612305" y="875.3270263672"/>
			<point x="931.7080688477" y="934.9573974609" type="qcurve" smooth="yes"/>
			<point x="930.0233764648" y="982.5834350586"/>
			<point x="989.7034912109" y="1038.5247802734"/>
			<point x="1035.5366821289" y="1038.5247802734" type="qcurve" smooth="yes"/>
			<point x="1094.505065918" y="967.7365722656"/>
			<point x="1232.4151000977" y="898.8400878906"/>
			<point x="1228.4151000977" y="784.1553955078" type="qcurve" smooth="yes"/>
			<point x="1224.4151000977" y="644.9977416992"/>
			<point x="885.8430786133" y="329.7116088867"/>
			<point x="678.8659667969" y="-14" type="qcurve"/>
			<point x="600.2246704102" y="-26" type="line"/>
			<point x="553.510925293" y="272.7769775391" type="line"/>
			<point x="548.7753295898" y="371.5250244141" type="line"/>
			<point x="536.7753295898" y="371.5250244141" type="line"/>
			<point x="475.76953125" y="266.4481201172" type="line"/>
			<point x="440.9057006836" y="219.2741699219"/>
			<point x="374.8542480469" y="130.1739501953"/>
			<point x="273.9904174805" y="-14" type="qcurve"/>
		</contour>
	</outline>
	<anchor name="bottom" x="787" y="0"/>
	<anchor name="top" x="717" y="1000"/>
</glyph>
<glyph name="jdotless" format="2">
	<unicode hex="0237"/>
	<advance width="361"/>
	<outline>
		<contour>
			<point x="174.8747558594" y="834.998046875" type="qcurve"/>
			<point x="25.8503417969" y="830.181640625" type="line"/>
			<point x="33.8109130859" y="949.1845703125" type="line"/>
			<point x="118.7721557617" y="1019.0009765625" type="line"/>
			<point x="336.7721557617" y="1006.0009765625" type="line"/>
			<point x="368.7721557617" y="914.0009765625" type="line"/>
			<point x="305.7721557617" y="664.0009765625" type="line"/>
			<point x="168.5918579102" y="76.154296875" type="line"/>
			<point x="136.2044677734" y="-158.9407958984"/>
			<point x="-47.4870605469" y="-495.0297851562"/>
			<point x="-364.1543579102" y="-495.0297851562" type="qcurve"/>
			<point x="-613.3334960938" y="-436.0297851562" type="line"/>
			<point x="-605.0928955078" y="-367.9071044922" type="line"/>
			<point x="-420.8817138672" y="-367.9071044922" type="line" smooth="yes"/>
			<point x="-260.7082519531" y="-366.99609375"/>
			<point x="-60.0706787109" y="-247.0406494141"/>
			<point x="6.5349121094" y="65.154296875" type="qcurve" smooth="yes"/>
			<point x="53.3963623047" y="272.1051025391"/>
			<point x="154.9547119141" y="674.9180908203"/>
		</contour>
	</outline>
	<anchor name="bottom" x="88" y="-436"/>
	<anchor name="top" x="320" y="1000"/>
	<anchor name="_liga" x="0" y="0"/>
</glyph>
